<svg xmlns="http://www.w3.org/2000/svg" viewBox="0 0 1400 900" width="1400" height="900">
  <defs>
    <linearGradient id="g1" x1="0%" y1="0%" x2="100%" y2="100%">
      <stop offset="0%" stop-color="#0f2440"/>
      <stop offset="50%" stop-color="#1B3F6E"/>
      <stop offset="100%" stop-color="#2d6a9f"/>
    </linearGradient>
  </defs>
  <rect width="1400" height="900" fill="url(#g1)"/>
  <!-- Lecture hall rows (abstract) -->
  <g opacity="0.08" fill="#fff">
    <rect x="100" y="300" width="1200" height="6" rx="3"/>
    <rect x="100" y="380" width="1200" height="6" rx="3"/>
    <rect x="100" y="460" width="1200" height="6" rx="3"/>
    <rect x="100" y="540" width="1200" height="6" rx="3"/>
    <rect x="100" y="620" width="1200" height="6" rx="3"/>
    <rect x="100" y="700" width="1200" height="6" rx="3"/>
  </g>
  <!-- Book / open-book shape -->
  <g opacity="0.10" stroke="#fff" stroke-width="2" fill="none">
    <path d="M580 100 Q700 60 820 100 L820 250 Q700 210 580 250 Z"/>
    <line x1="700" y1="65" x2="700" y2="255"/>
  </g>
  <!-- Stars -->
  <g opacity="0.2" fill="#fff">
    <circle cx="100" cy="100" r="2"/><circle cx="300" cy="50" r="3"/>
    <circle cx="900" cy="80" r="2"/><circle cx="1200" cy="40" r="3"/>
    <circle cx="60" cy="600" r="2"/><circle cx="1380" cy="700" r="2"/>
  </g>
  <g stroke="rgba(255,255,255,0.05)" stroke-width="1" fill="none">
    <line x1="0" y1="0" x2="1400" y2="900"/>
    <line x1="700" y1="0" x2="1400" y2="450"/>
    <line x1="0" y1="450" x2="700" y2="900"/>
  </g>
</svg>
